<svg width="35" height="34" viewBox="0 0 35 34" fill="none" xmlns="http://www.w3.org/2000/svg">
<path d="M14.8135 1.89551C8.77568 2.87389 4.1582 8.25173 4.1582 14.7402C4.1584 21.922 9.81537 27.7439 16.7939 27.7441C16.8996 27.7441 17.0054 27.7429 17.1104 27.7402C16.4444 27.8454 15.7619 27.9004 15.0664 27.9004C7.88428 27.9004 2.40723 22.5454 2.40723 15.3633C2.40741 8.26571 7.75599 2.04086 14.8135 1.89551Z" fill="#D2D2D2"/>
<path d="M32.4857 12.1541C30.3292 6.43305 24.1454 2.97453 17.7875 4.25876C10.7476 5.6809 6.16048 12.3797 7.54239 19.2204C7.56366 19.3257 7.58696 19.4302 7.61079 19.5343C7.37492 18.9007 7.18508 18.2407 7.04696 17.557C5.62482 10.5171 9.78925 4.08816 16.8292 2.66602C23.7842 1.26118 30.9429 5.26889 32.4857 12.1541Z" fill="#1AA349"/>
<path d="M3.94821 19.8893C5.35278 26.7099 11.6924 31.7046 19.0737 31.3955C27.2471 31.0531 33.6035 24.337 33.271 16.3949C33.266 16.2736 33.2591 16.1525 33.251 16.0321C33.4027 16.7858 33.4987 17.561 33.5319 18.3534C33.8742 26.5271 28.0401 33.016 19.8665 33.3582C11.792 33.6961 4.45477 27.9096 3.94821 19.8893Z" fill="#1AA349"/>
<circle cx="2.40759" cy="3.01925" r="2.13122" fill="#E7E738"/>
<path d="M25.8607 14.3019C26.3783 14.0546 26.5976 13.4267 26.2797 12.9491C25.4168 11.6526 24.2002 10.6078 22.7571 9.93748C20.9925 9.11783 18.993 8.90648 17.0842 9.33783C15.1753 9.76918 13.4696 10.8178 12.2447 12.313C11.0197 13.8083 10.3478 15.662 10.3381 17.5724C10.3285 19.4828 10.9818 21.3374 12.1917 22.8342C13.4016 24.331 15.0968 25.3819 17.0012 25.8158C18.9057 26.2497 20.9073 26.0409 22.6802 25.2236C24.1307 24.5549 25.3582 23.5111 26.2342 22.2149C26.5556 21.7395 26.3397 21.1098 25.8228 20.8609V20.8609C25.3216 20.6196 24.7256 20.8291 24.3998 21.2799C23.7415 22.1909 22.8498 22.9261 21.807 23.4068C20.4554 24.0299 18.9294 24.189 17.4775 23.8583C16.0256 23.5275 14.7332 22.7264 13.8108 21.5852C12.8885 20.4441 12.3904 19.0302 12.3977 17.5738C12.405 16.1173 12.9173 14.7041 13.8512 13.5642C14.785 12.4243 16.0855 11.6248 17.5407 11.296C18.9959 10.9671 20.5203 11.1282 21.8656 11.7531C22.8997 12.2334 23.7811 12.966 24.4296 13.873C24.7555 14.3288 25.3551 14.5436 25.8607 14.3019V14.3019Z" fill="#24CDAF"/>
</svg>
