<svg width="50" height="50" viewBox="0 0 50 50" fill="none" xmlns="http://www.w3.org/2000/svg">
<circle cx="25" cy="25" r="25" fill="white"/>
<path d="M26.7764 13.5083C21.9893 14.2918 18.3302 18.5577 18.3301 23.7046C18.3301 29.4079 22.8224 34.0316 28.3643 34.0318C28.4534 34.0318 28.5423 34.0263 28.6309 34.024C28.097 34.1091 27.55 34.1558 26.9922 34.1558C21.289 34.1558 16.9397 29.9038 16.9395 24.2007C16.9395 18.5696 21.1795 13.6325 26.7764 13.5083Z" fill="#D2D2D2"/>
<path d="M40.8199 21.6421C39.1041 17.105 34.1981 14.3631 29.153 15.3821C23.5627 16.5114 19.92 21.8303 21.0173 27.2625C21.0349 27.3498 21.0578 27.4359 21.0777 27.5222C20.8885 27.0158 20.7345 26.4889 20.624 25.9421C19.4947 20.3517 22.802 15.2464 28.3924 14.117C33.9119 13.0023 39.59 16.1808 40.8199 21.6421Z" fill="#1AA349"/>
<path d="M18.1634 27.7895C19.277 33.208 24.3114 37.1763 30.1745 36.9308C36.6651 36.6589 41.7128 31.326 41.4488 25.019C41.4448 24.925 41.4393 24.8314 41.4331 24.7381C41.5528 25.3346 41.6294 25.9482 41.6556 26.5752C41.9272 33.0657 37.2944 38.218 30.8038 38.4898C24.3903 38.7582 18.5632 34.1608 18.1634 27.7895Z" fill="#1AA349"/>
<path d="M8.61991 15.0538C12.3854 15.6366 15.5943 18.5703 16.4277 22.619C17.4912 27.7859 14.2833 32.8121 9.2627 33.8455C8.50205 34.0021 7.74344 34.058 7 34.0222C7.52226 34.1107 8.05892 34.1568 8.60636 34.1568C13.8815 34.1568 17.9043 30.2235 17.9043 24.9484C17.9043 19.6778 13.8884 15.0617 8.61991 15.0538Z" fill="#285ED2"/>
<circle cx="16.9405" cy="14.3976" r="1.69241" fill="#E7E738"/>
<path d="M35.5642 23.3572C35.9752 23.1607 36.1493 22.6621 35.8969 22.2829C35.2116 21.2533 34.2456 20.4236 33.0996 19.8913C31.6983 19.2405 30.1105 19.0726 28.5947 19.4152C27.0789 19.7577 25.7244 20.5904 24.7517 21.7778C23.7789 22.9651 23.2453 24.4372 23.2377 25.9542C23.2301 27.4713 23.7489 28.944 24.7096 30.1327C25.6704 31.3213 27.0165 32.1558 28.5289 32.5003C30.0412 32.8448 31.6307 32.6791 33.0385 32.0301C34.1904 31.4991 35.1651 30.6701 35.8608 29.6408C36.116 29.2633 35.9446 28.7633 35.534 28.5656C35.1361 28.374 34.6628 28.5404 34.4041 28.8984C33.8813 29.6218 33.1732 30.2056 32.3451 30.5874C31.2718 31.0822 30.06 31.2085 28.907 30.9459C27.7541 30.6832 26.7278 30.047 25.9954 29.1408C25.2629 28.2346 24.8674 27.1119 24.8732 25.9553C24.879 24.7987 25.2858 23.6765 26.0274 22.7713C26.769 21.8661 27.8016 21.2312 28.9572 20.9701C30.1129 20.709 31.3234 20.8369 32.3917 21.3331C33.2128 21.7145 33.9128 22.2963 34.4277 23.0166C34.6865 23.3785 35.1627 23.549 35.5642 23.3572Z" fill="#24CDAF"/>
</svg>
